<svg width="2312" height="702" viewBox="0 0 2312 702" fill="none" xmlns="http://www.w3.org/2000/svg">
<path d="M1395.34 614.336V366.24H1522.58V408.771H1443.9V467.959H1514.08V509.072H1443.9V573.223H1524V614.336H1395.34Z" fill="white"/>
<path d="M1273.07 408.771H1219.55V366.24H1374.79V408.771H1321.27V614.336H1273.07V408.771Z" fill="white"/>
<path d="M1062.73 366.24H1157C1171.89 371.202 1184.53 380.417 1194.93 393.885C1205.56 407.117 1210.88 423.42 1210.88 442.795C1210.88 474.457 1198.35 497.731 1173.31 512.617L1209.1 614.336H1159.49L1129.36 523.958H1110.58V614.336H1062.73V366.24ZM1110.58 408.771V484.263H1141.06C1145.07 483.318 1149.44 479.301 1154.17 472.212C1159.13 464.888 1161.61 456.382 1161.61 446.694C1161.61 437.007 1159.49 428.5 1155.23 421.176C1151.22 413.851 1147.2 409.716 1143.18 408.771H1110.58Z" fill="white"/>
<path d="M986.176 366.24C1002.72 379.708 1015 397.784 1023.04 420.467C1031.07 443.15 1035.09 466.542 1035.09 490.642C1035.09 514.507 1031.19 537.19 1023.39 558.691C1015.59 580.193 1003.19 598.741 986.176 614.336H913.165C896.153 598.741 883.748 580.193 875.951 558.691C868.154 537.19 864.255 514.507 864.255 490.642C864.255 466.542 868.272 443.15 876.305 420.467C884.339 397.784 896.626 379.708 913.165 366.24H986.176ZM936.912 573.223H962.43C968.337 566.371 973.299 555.265 977.316 539.907C981.569 524.312 983.695 507.891 983.695 490.642C983.695 473.394 981.687 457.209 977.67 442.087C973.653 426.728 968.691 415.623 962.784 408.771H936.912C931.005 415.623 925.925 426.728 921.671 442.087C917.655 457.209 915.646 473.394 915.646 490.642C915.646 507.891 917.655 524.312 921.671 539.907C925.925 555.265 931.005 566.371 936.912 573.223Z" fill="white"/>
<path d="M747.847 408.771V497.376H779.39C792.386 486.744 798.884 471.149 798.884 450.593C798.884 441.85 797.112 433.581 793.567 425.783C790.259 417.986 786.243 412.315 781.517 408.771H747.847ZM700 614.336V366.24H796.048C812.115 373.329 824.756 384.198 833.971 398.847C843.423 413.497 848.148 430.627 848.148 450.238C848.148 469.613 843.305 487.571 833.617 504.11C823.929 520.65 809.634 532.346 790.732 539.198H747.847V614.336H700Z" fill="white"/>
<path d="M1412.36 335.137L1404.91 295.796H1348.92L1341.47 335.137H1293.27L1341.12 87.0417H1414.48L1459.85 335.137H1412.36ZM1376.21 133.117L1362.38 215.697L1354.59 257.873H1398.89L1390.74 215.697L1376.92 133.117H1376.21Z" fill="white"/>
<path d="M1192.01 87.0417H1277.08V129.572H1209.03L1207.96 131.699L1264.67 235.19C1276.25 255.983 1282.04 271.814 1282.04 282.683C1282.04 306.547 1274.12 324.032 1258.29 335.137H1164.37V294.024H1237.74L1238.8 291.897L1175 177.419C1165.79 160.88 1161.18 147.412 1161.18 137.015C1161.18 112.442 1171.46 95.7841 1192.01 87.0417Z" fill="white"/>
<path d="M1054.61 87.0417H1139.67V129.572H1071.62L1070.56 131.699L1127.26 235.19C1138.84 255.983 1144.63 271.814 1144.63 282.683C1144.63 306.547 1136.71 324.032 1120.88 335.137H1026.96V294.024H1100.33L1101.39 291.897L1037.6 177.419C1028.38 160.88 1023.77 147.412 1023.77 137.015C1023.77 112.442 1034.05 95.7841 1054.61 87.0417Z" fill="white"/>
<path d="M963.792 335.137L956.349 295.796H900.351L892.908 335.137H844.707L892.553 87.0417H965.919L1011.28 335.137H963.792ZM927.641 133.117L913.819 215.697L906.021 257.873H950.324L942.173 215.697L928.35 133.117H927.641Z" fill="white"/>
<path d="M747.847 129.572V218.178H779.39C792.386 207.545 798.884 191.951 798.884 171.394C798.884 162.652 797.112 154.382 793.567 146.585C790.259 138.787 786.243 133.117 781.517 129.572H747.847ZM700 335.137V87.0417H796.048C812.115 94.1302 824.756 104.999 833.971 119.649C843.423 134.298 848.148 151.428 848.148 171.04C848.148 190.415 843.305 208.372 833.617 224.912C823.929 241.451 809.634 253.147 790.732 260H747.847V335.137H700Z" fill="white"/>
<path d="M102.361 87.69C95.1396 89.9923 88.7558 95.3295 84.9884 102.446C83.1046 106.004 83 114.271 83 354.657V603.204L85.3023 607.391C87.9186 612.309 93.0466 617.332 98.1745 620.053C101.733 621.937 109.895 622.042 346.722 622.042H591.607L597.468 619.111C604.48 615.763 612.328 607.704 615.468 600.797L617.77 595.879V515.297V434.715L615.468 429.796C612.747 423.936 606.677 417.029 601.34 413.575C592.863 408.238 589.724 408.029 530.177 408.029H474.921V273.761C474.921 125.783 475.339 135.097 468.223 120.76C461.316 106.946 448.549 95.7481 433.06 90.0969L425.211 87.2713L265.094 87.062C177.082 86.9574 103.826 87.2713 102.361 87.69ZM421.444 105.585C434.839 108.097 446.769 117.411 453.049 130.179L456.607 137.504L456.921 272.714L457.13 407.924L399.885 408.238C347.246 408.552 342.118 408.761 337.513 410.541C330.606 413.157 321.815 421.529 318.257 428.75C315.641 434.192 315.327 435.971 315.013 448.006L314.594 461.297L240.187 461.611C155.524 461.925 160.756 461.401 152.279 470.82C146.314 477.413 145.268 481.494 145.268 497.506C145.268 513.518 146.314 517.599 152.279 524.192C160.756 533.611 155.524 533.088 240.292 533.402L314.804 533.716V562.809C314.804 591.169 315.118 595.042 318.466 602.89C319.199 604.67 313.757 604.774 212.768 604.774H106.337L103.302 601.739L100.268 598.704V354.657V110.609L103.302 107.574L106.337 104.539H261.222C357.502 104.539 418.095 104.957 421.444 105.585ZM589.514 427.808C594.538 430.11 596.735 432.413 598.933 437.645C600.294 440.89 600.503 451.25 600.503 515.716C600.503 565.634 600.189 590.96 599.352 592.949C597.887 596.925 593.387 601.635 589.305 603.309C584.282 605.507 348.815 605.507 343.792 603.309C339.711 601.635 335.211 596.925 333.746 592.949C332.176 588.867 332.176 441.727 333.746 437.645C335.315 433.459 338.769 430.006 343.583 427.808C347.56 425.924 353.315 425.82 466.549 425.82C579.573 425.82 585.538 425.924 589.514 427.808ZM314.594 497.82L314.804 515.82L241.443 515.611L168.082 515.297L165.57 512.367C163.268 509.646 163.059 508.599 163.059 497.611C163.059 487.25 163.373 485.367 165.152 483.064C166.303 481.599 168.291 480.134 169.652 479.925C170.907 479.715 203.977 479.506 243.117 479.611L314.28 479.715L314.594 497.82Z" fill="white"/>
<path d="M269.803 140.748C248.036 143.26 230.559 148.283 215.698 156.446C187.756 171.621 165.675 196.842 153.849 226.981C143.384 253.458 142.442 287.679 151.547 315.098C167.035 361.564 204.291 395.052 252.222 405.517C263.838 408.029 286.024 408.552 298.897 406.564C327.571 402.168 352.897 389.192 373.409 368.366C379.478 362.296 386.699 353.819 389.42 349.633C409.618 319.284 416.944 284.121 410.455 249.691C408.048 237.342 405.223 228.656 399.048 215.993C381.048 178.528 346.199 151.528 305.594 143.365C295.443 141.272 276.815 139.911 269.803 140.748ZM269.803 185.644V211.284H252.013C242.28 211.284 234.222 211.074 234.222 210.865C234.222 209.609 239.978 195.586 242.699 190.039C246.571 182.4 253.687 172.144 257.873 168.272C260.699 165.656 268.548 160.004 269.385 160.004C269.594 160.004 269.803 171.516 269.803 185.644ZM302.245 171.202C305.594 174.76 310.199 180.935 312.397 184.807C316.478 192.132 323.176 207.621 323.176 209.923C323.176 210.97 318.885 211.284 305.385 211.284H287.594V185.539V159.9L291.885 162.307C294.292 163.667 299.001 167.644 302.245 171.202ZM232.652 171.725C228.152 179.051 220.931 194.539 218.419 202.388C217.164 206.365 215.803 210.028 215.384 210.551C214.966 210.97 207.326 211.179 198.222 211.074L181.687 210.76L186.919 203.958C196.861 190.877 215.489 175.702 229.198 169.423C235.478 166.597 235.792 166.702 232.652 171.725ZM330.815 170.574C345.257 177.9 358.862 188.888 368.699 201.132C372.467 205.842 375.502 210.028 375.502 210.446C375.502 210.865 367.967 211.284 358.862 211.284H342.222L339.92 203.853C337.094 194.539 331.025 181.144 326.001 173.295C323.908 170.051 322.652 167.33 323.176 167.33C323.804 167.33 327.257 168.795 330.815 170.574ZM210.57 234.516C210.152 237.028 209.315 244.877 208.687 252.098L207.536 265.179H185.559H163.582L163.896 260.993C164.314 254.819 167.245 241.947 169.547 235.563L171.535 230.121H191.524H211.408L210.57 234.516ZM269.803 247.912V265.703H247.722H225.536L226.164 257.016C226.478 252.202 227.315 244.144 228.047 239.226L229.303 230.121H249.606H269.803V247.912ZM328.722 232.423C329.664 236.4 331.443 251.156 331.757 258.377L332.071 265.179H310.094H288.117L287.803 247.598L287.594 230.121H307.897C328.094 230.121 328.199 230.121 328.722 232.423ZM389.42 239.226C392.246 248.644 394.339 258.9 394.339 263.296V265.703H372.467H350.594L349.862 258.586C348.92 247.389 347.246 233.993 346.618 231.9C346.094 230.226 347.56 230.121 366.397 230.121H386.699L389.42 239.226ZM208.059 288.935C208.059 291.97 208.791 299.61 209.629 305.993C210.466 312.273 211.198 317.819 211.198 318.238C211.198 318.761 202.303 319.075 191.315 319.075H171.535L168.814 310.598C166.826 304.11 163.059 286.842 163.059 283.912C163.059 283.703 173.21 283.493 185.559 283.493H208.059V288.935ZM269.803 301.284V319.075L249.71 318.866L229.512 318.552L228.257 311.226C227.629 307.145 226.687 299.296 226.268 293.645L225.536 283.493H247.722H269.803V301.284ZM332.071 289.459C330.815 302.749 330.397 306.203 329.35 312.482L328.199 319.075H307.897H287.594V301.284V283.493H310.094H332.594L332.071 289.459ZM393.816 289.459C392.978 296.784 389.734 309.97 387.537 315.203L385.967 319.075H365.978C349.234 319.075 346.094 318.866 346.513 317.61C347.036 316.354 348.397 305.052 349.967 288.935L350.49 283.493H372.571H394.548L393.816 289.459ZM218.524 346.494C221.559 355.598 228.047 369.308 232.757 376.843C234.117 379.04 235.268 381.029 235.268 381.343C235.268 381.657 231.082 379.773 225.85 377.157C210.466 369.203 197.07 358.005 186.815 344.505C184.094 340.947 181.896 337.808 181.896 337.494C181.896 337.075 189.431 336.97 198.64 337.075L215.489 337.389L218.524 346.494ZM269.803 362.505C269.803 376.633 269.594 388.145 269.28 388.145C267.606 388.145 260.175 382.389 255.571 377.575C248.873 370.354 242.594 359.889 237.885 347.645C235.896 342.308 234.222 337.703 234.222 337.389C234.222 337.075 242.28 336.866 252.013 336.866H269.803V362.505ZM322.652 339.691C319.932 351.203 307.792 373.18 300.466 379.878C297.013 383.226 289.792 388.145 288.536 388.145C288.013 388.145 287.594 376.633 287.594 362.505V336.866H305.49H323.385L322.652 339.691ZM373.199 341.784C362.943 356.54 340.129 374.959 324.641 380.819L322.025 381.866L324.746 377.366C329.769 369.203 336.676 354.447 339.606 345.552L342.432 336.866H359.595H376.653L373.199 341.784Z" fill="white"/>
<path d="M385.967 445.18C374.35 448.425 365.769 456.483 361.374 467.89C357.606 477.936 361.06 496.669 367.548 502.111C370.06 504.204 369.641 505.25 364.827 509.541C359.071 514.564 354.048 523.041 351.955 530.995C350.071 538.32 349.757 570.448 351.536 575.158C353.106 579.553 358.653 584.786 362.943 585.937C364.932 586.46 379.792 586.983 396.013 586.983C424.793 586.983 425.525 586.879 430.025 584.576C432.851 583.007 435.572 580.495 437.037 577.983C439.339 574.007 439.339 573.169 439.13 552.344L438.816 530.89L434.944 523.041C432.641 518.437 428.979 513.204 425.839 510.169L420.502 504.936L423.223 501.483C428.351 494.681 430.339 488.715 430.339 479.715C430.339 472.913 429.92 470.297 427.618 465.483C420.083 449.157 402.502 440.576 385.967 445.18ZM405.013 465.169C412.862 470.192 415.06 481.39 409.827 489.343C400.304 503.785 377.595 497.088 377.595 479.715C377.595 465.273 392.769 457.32 405.013 465.169ZM405.851 518.018C412.13 520.844 416.106 524.716 419.037 530.995C421.339 535.809 421.548 537.588 421.548 552.658V569.193H394.862H368.176V554.227C368.176 537.169 369.536 530.995 374.455 525.03C381.571 516.448 395.49 513.309 405.851 518.018Z" fill="white"/>
<path d="M460.688 455.541C456.711 458.89 456.711 464.959 460.793 468.413L463.514 470.82H514.793C568.793 470.82 570.886 470.611 572.666 466.111C574.026 462.448 573.293 458.157 570.677 455.645L568.166 453.029H515.84H463.514L460.688 455.541Z" fill="white"/>
<path d="M460.688 491.122C456.607 494.576 456.607 500.436 460.688 503.89L463.514 506.401H515.84H568.165L570.677 503.785C572.456 502.111 573.293 500.122 573.293 497.506C573.293 494.89 572.456 492.901 570.677 491.227L568.165 488.611H515.84H463.514L460.688 491.122Z" fill="white"/>
<path d="M462.572 525.239C459.328 526.599 456.816 532.669 458.072 536.123C460.374 542.088 459.223 541.983 516.049 541.983H568.166L570.677 539.367C573.293 536.855 574.026 532.564 572.666 528.902C570.886 524.402 568.793 524.192 515.526 524.297C487.374 524.297 463.932 524.716 462.572 525.239Z" fill="white"/>
<path d="M462.258 561.344C459.223 563.018 456.816 568.251 457.863 571.076C458.177 572.018 459.432 573.902 460.583 575.158C462.677 577.565 463.095 577.565 488.735 577.565H514.793L517.305 574.949C520.654 571.704 520.654 567.1 517.409 563.228L514.898 560.297L489.886 560.088C469.688 559.879 464.456 560.088 462.258 561.344Z" fill="white"/>
<path d="M1711.41 194.683L1695.74 210.352H1648.49L1632.82 194.683V119.718L1648.49 104.097H1695.74L1711.41 119.718V194.683ZM1707.99 80.0001H1636.25L1606 110.002V204.453L1636.25 234.454H1707.99L1738.24 204.453V110.002L1707.99 80.0001Z" fill="white"/>
<path d="M2203.18 386.675L2187.56 402.338H2140.3L2124.64 386.675V311.705L2140.3 296.084H2187.56L2203.18 311.705V386.675ZM2199.8 271.992H2128.01L2097.82 301.988V396.445L2128.01 426.441H2199.8L2230 396.445V301.988L2199.8 271.992Z" fill="white"/>
<path d="M1876.03 386.675L1860.36 402.338H1813.16L1797.44 386.675V311.705L1813.16 296.084H1860.36L1876.03 311.705V386.675ZM1872.66 271.992H1800.86L1770.67 301.988V396.445L1800.86 426.441H1872.66L1902.8 396.445V301.988L1872.66 271.992Z" fill="white"/>
<path d="M1959.89 344.613V272.007H1934.24V344.613L1972.21 426.44H2000.31L1992.32 405.713L1959.89 344.613Z" fill="white"/>
<path d="M2040.73 272.008V344.614L2000.31 426.441H2028.4L2066.4 344.614V272.008H2040.73Z" fill="white"/>
<path d="M1707.99 275.362H1606.01H1606V426.44H1632.83V299.459H1695.75L1711.42 315.08V426.44H1738.24V305.358L1707.99 275.362Z" fill="white"/>
<path d="M2017.85 587.72L2007.24 598.134H1923.3L1939.41 582.066V556.584H2003.12L2017.85 571.455V587.72ZM1939.41 492.428H2002.73L2013.29 502.789V521.53L2001.79 532.833H1939.41V492.428ZM2024.39 543.45L2039.96 527.876V493.317L2015.12 468.48H1912.74V622.082H2019.64L2044.53 597.24V563.575L2024.39 543.45Z" fill="white"/>
<path d="M1616.35 597.98L1632.79 581.613V467.67H1606.01L1606.01 622.077H1717.76V597.985L1616.35 597.98Z" fill="white"/>
<path d="M2082.02 599.299H2088.64L2089.71 598.224V595.7L2088.64 594.624H2082.02V599.299ZM2091.8 603.463L2095.9 611.225H2090.1L2086.24 603.846H2082.02V611.225H2076.78V590.019H2091.42L2095.01 593.618V600.247L2091.8 603.463ZM2101.2 611.225V590.019L2095.08 583.96H2076.71L2070.59 590.019V611.225L2076.71 617.284H2095.08L2101.2 611.225ZM2106.44 588.124V613.121L2097.42 622.081H2074.32L2065.35 613.121V588.124L2074.32 579.163H2097.42L2106.44 588.124Z" fill="white"/>
<path d="M1843.36 467.65H1815.27L1852.27 563.715H1778.24L1815.27 467.65H1787.18L1749.18 569.662V622.083H1774.85V587.354H1855.69V622.083H1881.34V569.603L1843.36 467.65Z" fill="white"/>
</svg>
