<svg width="800" height="160" viewBox="0 0 800 160" fill="none" xmlns="http://www.w3.org/2000/svg">
<path fill-rule="evenodd" clip-rule="evenodd" d="M635.294 14.1176H9.41174V61.3057C10.1842 61.2203 10.9694 61.1765 11.7647 61.1765C23.4602 61.1765 32.9412 70.6575 32.9412 82.3529C32.9412 94.0484 23.4602 103.529 11.7647 103.529C10.9694 103.529 10.1842 103.486 9.41174 103.4V150.588H635.294V103.4C624.706 102.23 616.471 93.2531 616.471 82.3529C616.471 71.4528 624.706 62.4762 635.294 61.3057V14.1176Z" fill="#282828"/>
<path d="M677.172 43.905L673.745 47.3318H663.411L659.984 43.905V27.51L663.411 24.0937H673.745L677.172 27.51V43.905ZM676.423 18.8235H660.733L654.118 25.385V46.0417L660.733 52.6031H676.423L683.038 46.0417V25.385L676.423 18.8235Z" fill="white"/>
<path d="M784.722 85.8941L781.306 89.3198H770.971L767.546 85.8941V69.4981L770.971 66.0817H781.306L784.722 69.4981V85.8941ZM783.984 60.8127H768.283L761.679 67.373V88.0308L768.283 94.5911H783.984L790.588 88.0308V67.373L783.984 60.8127Z" fill="white"/>
<path d="M713.174 85.8941L709.747 89.3198H699.424L695.986 85.8941V69.4981L699.424 66.0817H709.747L713.174 69.4981V85.8941ZM712.436 60.8127H696.734L690.131 67.373V88.0308L696.734 94.5911H712.436L719.029 88.0308V67.373L712.436 60.8127Z" fill="white"/>
<path d="M731.514 76.695V60.8159H725.905V76.695L734.209 94.5909H740.354L738.606 90.0578L731.514 76.695Z" fill="white"/>
<path d="M749.194 60.8162V76.6953L740.353 94.5911H746.498L754.808 76.6953V60.8162H749.194Z" fill="white"/>
<path d="M676.424 61.5496H654.12H654.118V94.591H659.984V66.8198H673.745L677.172 70.2361V94.591H683.039V68.1099L676.424 61.5496Z" fill="white"/>
<path d="M744.19 129.863L741.871 132.141H723.512L727.036 128.627V123.054H740.97L744.19 126.306V129.863ZM727.036 109.023H740.883L743.194 111.289V115.387L740.677 117.859H727.036V109.023ZM745.621 120.181L749.026 116.775V109.217L743.594 103.785H721.203V137.379H744.582L750.025 131.945V124.583L745.621 120.181Z" fill="white"/>
<path d="M656.382 132.107L659.976 128.528V103.608H654.12L654.119 137.377H678.559V132.108L656.382 132.107Z" fill="white"/>
<path d="M758.223 132.396H759.672L759.907 132.16V131.609L759.672 131.373H758.223V132.396ZM760.363 133.306L761.26 135.004H759.991L759.148 133.39H758.223V135.004H757.078V130.366H760.281L761.066 131.153V132.603L760.363 133.306ZM762.42 135.004V130.366L761.081 129.041H757.064L755.725 130.366V135.004L757.064 136.329H761.081L762.42 135.004ZM763.566 129.952V135.419L761.592 137.378H756.54L754.579 135.419V129.952L756.54 127.992H761.592L763.566 129.952Z" fill="white"/>
<path d="M706.03 103.604H699.886L707.978 124.613H691.788L699.886 103.604H693.743L685.431 125.914V137.379H691.046V129.783H708.725V137.379H714.335V125.901L706.03 103.604Z" fill="white"/>
<path d="M82.0292 56.9092V85.3966H92.1707C96.3489 81.9781 98.438 76.9644 98.438 70.3553C98.438 67.5445 97.8682 64.8857 96.7287 62.3788C95.6652 59.8719 94.3738 58.0487 92.8544 56.9092H82.0292ZM66.646 123V43.2353H97.5264C102.692 45.5143 106.756 49.0087 109.719 53.7187C112.758 58.4286 114.277 63.9361 114.277 70.2413C114.277 76.4706 112.72 82.244 109.605 87.5617C106.49 92.8793 101.894 96.6397 95.8171 98.8427H82.0292V123H66.646ZM151.457 123L149.065 110.352H131.06L128.668 123H113.17L128.554 43.2353H152.141L166.727 123H151.457ZM139.835 58.0487L135.391 84.599L132.884 98.159H147.127L144.507 84.599L140.062 58.0487H139.835ZM180.655 43.2353H208.003V56.9092H186.125L185.783 57.5929L204.015 90.8662C207.737 97.5513 209.598 102.641 209.598 106.135C209.598 113.808 207.054 119.43 201.964 123H171.767V109.782H195.355L195.697 109.098L175.186 72.2924C172.223 66.9748 170.742 62.6447 170.742 59.3022C170.742 51.4017 174.046 46.046 180.655 43.2353ZM224.833 43.2353H252.181V56.9092H230.303L229.961 57.5929L248.193 90.8662C251.915 97.5513 253.776 102.641 253.776 106.135C253.776 113.808 251.231 119.43 246.142 123H215.945V109.782H239.532L239.874 109.098L219.363 72.2924C216.401 66.9748 214.919 62.6447 214.919 59.3022C214.919 51.4017 218.224 46.046 224.833 43.2353ZM295.675 123L293.282 110.352H275.278L272.885 123H257.388L272.771 43.2353H296.359L310.944 123H295.675ZM284.052 58.0487L279.608 84.599L277.101 98.159H291.345L288.724 84.599L284.28 58.0487H284.052ZM332.963 56.9092V85.3966H343.105C347.283 81.9781 349.372 76.9644 349.372 70.3553C349.372 67.5445 348.802 64.8857 347.663 62.3788C346.599 59.8719 345.308 58.0487 343.788 56.9092H332.963ZM317.58 123V43.2353H348.46C353.626 45.5143 357.69 49.0087 360.653 53.7187C363.692 58.4286 365.211 63.9361 365.211 70.2413C365.211 76.4706 363.654 82.244 360.539 87.5617C357.424 92.8793 352.828 96.6397 346.751 98.8427H332.963V123H317.58ZM409.588 43.2353C414.906 47.5654 418.856 53.3768 421.439 60.6696C424.022 67.9623 425.313 75.483 425.313 83.2316C425.313 90.9042 424.06 98.197 421.553 105.11C419.046 112.023 415.058 117.986 409.588 123H386.114C380.645 117.986 376.657 112.023 374.15 105.11C371.643 98.197 370.389 90.9042 370.389 83.2316C370.389 75.483 371.681 67.9623 374.264 60.6696C376.846 53.3768 380.797 47.5654 386.114 43.2353H409.588ZM393.749 109.782H401.953C403.853 107.579 405.448 104.008 406.739 99.0706C408.107 94.0568 408.79 88.7771 408.79 83.2316C408.79 77.686 408.145 72.4824 406.853 67.6205C405.562 62.6827 403.966 59.1123 402.067 56.9092H393.749C391.85 59.1123 390.217 62.6827 388.849 67.6205C387.558 72.4824 386.912 77.686 386.912 83.2316C386.912 88.7771 387.558 94.0568 388.849 99.0706C390.217 104.008 391.85 107.579 393.749 109.782ZM434.2 43.2353H464.511C469.297 44.8306 473.361 47.7933 476.703 52.1234C480.122 56.3775 481.831 61.6192 481.831 67.8484C481.831 78.0279 477.805 85.5106 469.752 90.2965L481.261 123H465.308L455.623 93.9429H449.583V123H434.2V43.2353ZM449.583 56.9092V81.1805H459.383C460.674 80.8766 462.08 79.5852 463.599 77.3062C465.194 74.9513 465.992 72.2165 465.992 69.1018C465.992 65.9872 465.308 63.2524 463.941 60.8975C462.65 58.5425 461.358 57.2131 460.067 56.9092H449.583ZM501.826 56.9092H484.619V43.2353H534.529V56.9092H517.323V123H501.826V56.9092ZM541.139 123V43.2353H582.047V56.9092H556.75V75.9388H579.312V89.157H556.75V109.782H582.503V123H541.139Z" fill="white"/>
</svg>
